# xmcd
#
# Track frame offsets: 
#        300
#        27378
#        44235
#        72899
#        101196
#        134019
#        144860
#        181855
#        205041
#        234687
#        261867
#        295034
#
# Disc length: 4487 seconds
#
# Revision: 0
# Processed by: cddbd v1.5.2PL0 Copyright (c) Steve Scherf et al.
# Submitted via: ExactAudioCopy v1.0b3
#
DISCID=bb11830c
DTITLE=Big Jack Johnson With The Cornlickers - Katrina
DYEAR=2008
DGENRE=Electric Blues
TTITLE0=Nieokreślony twórca - Fourth of July
TTITLE1=Nieokreślony twórca - Stop Pushin' on Me
TTITLE2=Nieokreślony twórca - Katrina
TTITLE3=Nieokreślony twórca - Miss Statue Of Liberty
TTITLE4=Nieokreślony twórca - Goin' Down To Big Red's
TTITLE5=Nieokreślony twórca - Laughin' Blues
TTITLE6=Nieokreślony twórca - Po' Cow Boogie
TTITLE7=Nieokreślony twórca - Ain't Gonna Do It No More
TTITLE8=Nieokreślony twórca - Red Car
TTITLE9=Nieokreślony twórca - Cryin' Blues
TTITLE10=Nieokreślony twórca - Gettin' Old Mister Ellis
TTITLE11=Nieokreślony twórca - It's All Gone
EXTD=
EXTT0=
EXTT1=
EXTT2=
EXTT3=
EXTT4=
EXTT5=
EXTT6=
EXTT7=
EXTT8=
EXTT9=
EXTT10=
EXTT11=
PLAYORDER=
